<svg xmlns="http://www.w3.org/2000/svg"  viewBox="0 0 48 48" width="48px" height="48px" fill-rule="evenodd" clip-rule="evenodd" baseProfile="basic"><path fill-rule="evenodd" d="M10.997,21.999v2.001h2.001v-2.001	H10.997z" clip-rule="evenodd"/><path fill-rule="evenodd" d="M4.998,10.999v2.001h27.001v-2.001	H4.998z" clip-rule="evenodd"/><path fill-rule="evenodd" d="M39.997,30.998v2.001h2.001v-2.001	H39.997z" clip-rule="evenodd"/><path fill-rule="evenodd" d="M13.998,42.999V31.101l-2.732-6.013	c-0.687-1.509-0.017-3.287,1.489-3.972c0.32-0.145,0.653-0.231,0.985-0.259l-0.1-0.223l-0.389-0.193l-6.997-4.999	c-1.675-1.195-1.675-3.688,0-4.883l6.999-5c0.528-0.377,1.14-0.559,1.744-0.559c0.837-0.628,1.876-1.001,3.003-1.001	c1.329,0,2.539,0.521,3.435,1.368c0.007,0.004,0.013,0.008,0.02,0.011l9,5c1.841,1.023,2.08,3.579,0.464,4.928l-5.401,4.501	l2.861,5.721l3.565-1.337c1.1-0.412,2.343-0.144,3.175,0.688l6,6c1.172,1.171,1.172,3.072,0,4.243	c-1.025,1.027-2.609,1.155-3.773,0.384l-0.401-0.325l-0.215-0.176l-0.739,8.211c-0.105,1.549-1.405,2.784-2.992,2.784	c-1.657,0-3-1.343-3-3v-8h-2.172c0.111,0.313,0.172,0.651,0.172,1v7c0,1.657-1.347,3-3,3c-1.657,0-3-1.343-3-2.999l-0.013-4.209	l-0.056-0.012c-0.688-0.151-1.325-0.372-1.923-0.651l-0.008,4.871c0,1.657-1.347,3-3,3C15.341,45.999,13.998,44.657,13.998,42.999z M20.982,14.999l2.536-1.611l-1.828-1.015c-0.915,1.001-2.231,1.628-3.691,1.628c-1.52,0-2.881-0.677-3.799-1.747l-0.917,0.655	l3.621,2.089H20.982z" clip-rule="evenodd"/><path fill="#fff" fill-rule="evenodd" d="M30.998,40.999v-9h-7	c-2.711,0-4.22-2.284-5-4l-4.585-10.087c-0.207-0.063-0.401-0.159-0.577-0.285l-7-5c-1.116-0.796-1.116-2.459,0-3.255l7-5	c0.897-0.641,2.148-0.433,2.789,0.465c0.641,0.897,0.433,2.148-0.465,2.789l-4.721,3.372l5.2,3h4.635l4.203-2.668l-6.449-3.583	c-0.965-0.536-1.313-1.755-0.777-2.72c0.536-0.965,1.755-1.313,2.72-0.777l9,5c1.227,0.681,1.387,2.387,0.309,3.285l-6,5	c-0.003,0.003-0.005,0.005-0.008,0.007l3.617,7.237l4.408-1.653c0.733-0.275,1.561-0.096,2.116,0.459l6,6	c0.781,0.78,0.781,2.048,0,2.828c-0.78,0.781-2.048,0.781-2.828,0l-1.677-1.401l-0.912,10.123c-0.071,1.04-0.939,1.864-1.996,1.864	C31.894,42.999,30.998,42.103,30.998,40.999z" clip-rule="evenodd"/><path fill-rule="evenodd" d="M22.999,31.999c0-0.551,0.448-1,1-1	c0.629,0,0.965-0.055,1.251-0.156c0.305-0.109,0.62-0.293,1.195-0.676l4.947-3.297c0.368-0.245,0.855-0.219,1.195,0.065l3.957,3.307	c0.424,0.353,0.48,0.985,0.127,1.408c-0.353,0.424-0.985,0.48-1.408,0.127l-3.384-2.827l-4.325,2.883	c-0.568,0.379-1.067,0.695-1.632,0.895c-0.587,0.209-1.179,0.272-1.921,0.272C23.447,32.999,22.999,32.551,22.999,31.999z" clip-rule="evenodd"/><path fill-rule="evenodd" d="M29.998,40.999v-8h-6	c-3.365,0-5.116-2.836-5.911-4.585l-4.447-9.78l-0.389-0.193l-6.997-4.999c-1.675-1.195-1.675-3.688,0-4.883l6.999-5	c1.347-0.963,3.223-0.651,4.185,0.699l0.06,0.107l0.223-0.32c0.908-1.059,2.465-1.369,3.733-0.667l9,5	c1.841,1.023,2.08,3.579,0.464,4.928l-5.401,4.501l2.861,5.721l3.565-1.337c1.1-0.412,2.343-0.144,3.175,0.688l6,6	c1.172,1.171,1.172,3.072,0,4.243c-1.025,1.027-2.609,1.155-3.773,0.384l-0.401-0.325l-0.215-0.176l-0.739,8.211	c-0.105,1.549-1.405,2.784-2.992,2.784C31.341,43.999,29.998,42.657,29.998,40.999z M33.997,41.057l0.913-10.133	c0.072-0.801,1.019-1.193,1.636-0.677l1.677,1.401l0.067,0.061c0.389,0.389,1.024,0.389,1.413-0.001	c0.391-0.389,0.391-1.024,0-1.413l-6-6c-0.277-0.277-0.691-0.367-1.057-0.229l-4.408,1.653c-0.479,0.179-1.017-0.032-1.245-0.489	l-3.617-7.237c-0.208-0.415-0.103-0.919,0.253-1.216l6.008-5.007c0.539-0.448,0.457-1.303-0.155-1.643l-9-5	c-0.483-0.268-1.092-0.093-1.36,0.389c-0.268,0.483-0.093,1.092,0.389,1.36l6.449,3.583c0.661,0.368,0.689,1.312,0.049,1.719	l-4.203,2.668c-0.16,0.101-0.345,0.155-0.535,0.155h-4.635c-0.176,0-0.348-0.045-0.5-0.133l-5.2-3	c-0.629-0.363-0.673-1.257-0.081-1.68l4.721-3.372c0.448-0.32,0.552-0.945,0.232-1.395c-0.32-0.448-0.945-0.552-1.393-0.232	l-7.001,5c-0.557,0.397-0.557,1.229,0,1.627l7.003,5.001c0.087,0.063,0.183,0.111,0.284,0.141c0.276,0.083,0.501,0.281,0.62,0.543	l4.585,10.087c0.765,1.683,2.033,3.413,4.091,3.413h7c0.551,0,1,0.449,1,1v9c0,0.552,0.448,1,1,1	C33.525,41.999,33.961,41.587,33.997,41.057z M20.982,12.999l2.536-1.611l-4.979-2.765c-0.363-0.2-0.667-0.465-0.907-0.772	l-0.133-0.209l-0.304,0.4c-0.136,0.145-0.288,0.28-0.456,0.4l-3.456,2.468l3.621,2.089H20.982z" clip-rule="evenodd"/><path fill="#fff" fill-rule="evenodd" d="M17.999,2.999	c-2.208,0-4.001,1.793-4.001,4.001s1.793,4.001,4.001,4.001s4.001-1.793,4.001-4.001S20.207,2.999,17.999,2.999z" clip-rule="evenodd"/><path fill-rule="evenodd" d="M12.998,7.001	c0-2.76,2.24-5.001,5.001-5.001c2.76,0,5.001,2.241,5.001,5.001c0,2.761-2.241,5.001-5.001,5.001	C15.238,12.002,12.998,9.762,12.998,7.001z M21.001,7.001c0-1.655-1.347-3.001-3.001-3.001c-1.656,0-3.001,1.347-3.001,3.001	c0,1.656,1.345,3.001,3.001,3.001C19.654,10.002,21.001,8.657,21.001,7.001z" clip-rule="evenodd"/><path fill="#fff" fill-rule="evenodd" d="M14.998,40.999v-12	c0-0.037,0-0.075,0.003-0.112l-2.824-6.215c-0.457-1.005-0.012-2.191,0.993-2.648c1.005-0.457,2.191-0.012,2.648,0.993l3.148,6.925	c0.373,0.823,0.959,1.875,1.809,2.703c0.812,0.791,1.84,1.353,3.223,1.353h1c1.103,0,2,0.897,2,2v7c0,1.104-0.897,2-2,2	c-1.104,0-2-0.896-2-2l-0.001-5.057l-0.853-0.14c-1.224-0.268-2.269-0.789-3.147-1.431l0.001,6.628c0,1.104-0.897,2-2,2	C15.894,42.999,14.998,42.103,14.998,40.999z" clip-rule="evenodd"/><path fill-rule="evenodd" d="M13.998,40.999V29.101l-2.732-6.013	c-0.687-1.509-0.017-3.287,1.489-3.972c1.509-0.687,3.287-0.017,3.972,1.489l3.148,6.925c0.351,0.772,0.873,1.696,1.597,2.4	c0.665,0.648,1.453,1.069,2.525,1.069h1c1.655,0,3,1.345,3,3v7c0,1.657-1.347,3-3,3c-1.657,0-3-1.343-3-2.999l-0.013-4.209	l-0.056-0.012c-0.688-0.151-1.325-0.372-1.923-0.651l-0.008,4.871c0,1.657-1.347,3-3,3C15.341,43.999,13.998,42.657,13.998,40.999z M17.998,41.001l-0.001-6.628c-0.001-0.817,0.931-1.289,1.589-0.808c0.584,0.428,1.247,0.792,1.995,1.045l0.757,0.212l0.82,0.133	c0.483,0.08,0.837,0.497,0.837,0.987l0.003,5.057c0,0.552,0.448,1,1,1c0.551,0,1-0.448,1-1v-7c0-0.549-0.451-1-1-1h-1	c-1.695,0-2.963-0.703-3.921-1.636c-0.977-0.952-1.625-2.132-2.021-3.005l-3.148-6.925c-0.229-0.504-0.823-0.725-1.324-0.497	c-0.504,0.229-0.725,0.823-0.497,1.324l2.824,6.215c0.063,0.137,0.093,0.287,0.089,0.437l-0.001,0.1v11.988c0,0.552,0.448,1,1,1	C17.549,41.999,17.998,41.551,17.998,41.001z" clip-rule="evenodd"/></svg>